<svg id="svg" version="1.1" width="400" height="360" xmlns="http://www.w3.org/2000/svg" xmlns:xlink="http://www.w3.org/1999/xlink" style="display: block;"><g id="svgg"><path id="path0" d="M129.908 21.358 C 123.398 23.068,121.124 23.905,116.353 26.352 C 110.375 29.417,103.366 35.714,98.837 42.090 C 88.698 56.361,83.063 74.997,81.548 99.265 C 80.982 108.325,79.986 111.560,77.759 111.560 C 76.044 111.560,60.750 121.804,52.477 128.495 C 8.525 164.041,14.422 207.743,68.044 243.870 L 77.006 249.908 77.035 254.088 C 77.598 335.363,120.320 362.370,191.375 326.370 L 197.430 323.303 200.917 325.351 C 270.297 366.099,315.327 342.695,320.418 263.240 L 320.880 256.022 324.213 254.066 C 372.641 225.639,388.655 194.781,372.111 161.768 C 370.070 157.695,367.823 153.731,367.117 152.961 C 366.412 152.190,364.304 149.578,362.433 147.156 C 356.196 139.082,345.231 129.475,332.686 121.095 L 324.455 115.596 324.422 110.459 C 324.346 98.794,322.326 80.673,320.206 72.661 C 319.619 70.440,318.878 67.633,318.560 66.422 C 311.643 40.110,290.763 23.487,264.631 23.486 C 254.576 23.486,234.481 27.926,224.954 32.253 C 224.147 32.620,219.234 34.926,214.037 37.377 C 202.759 42.697,205.421 42.662,196.072 37.619 C 179.835 28.859,167.420 24.181,152.808 21.314 C 148.110 20.392,133.478 20.420,129.908 21.358 M158.337 49.099 C 166.992 51.942,172.477 54.303,172.477 55.186 C 172.477 55.567,163.972 66.314,153.578 79.068 C 103.111 140.989,108.414 134.827,107.661 132.422 C 106.628 129.122,106.676 100.382,107.727 92.844 C 109.169 82.502,112.338 69.665,113.878 67.927 C 114.217 67.543,114.495 66.818,114.495 66.315 C 114.495 64.866,119.578 56.579,122.345 53.516 C 129.217 45.910,143.350 44.175,158.337 49.099 M277.777 51.700 C 287.345 56.382,294.461 69.567,296.812 86.972 C 297.030 88.587,297.433 91.026,297.707 92.392 L 298.205 94.876 293.873 94.378 C 291.491 94.104,287.890 93.578,285.872 93.210 C 283.853 92.842,280.138 92.196,277.615 91.775 C 275.092 91.354,271.128 90.682,268.807 90.283 C 266.486 89.883,259.468 88.738,253.211 87.738 C 246.954 86.737,235.560 84.915,227.890 83.689 C 203.790 79.836,196.690 78.513,196.716 77.881 C 196.738 77.355,208.810 68.991,209.549 68.991 C 209.824 68.991,210.952 68.348,212.055 67.562 C 231.505 53.713,265.246 45.570,277.777 51.700 M177.106 101.218 C 178.799 101.585,182.495 102.258,185.321 102.714 C 188.147 103.169,192.275 103.857,194.495 104.244 C 198.259 104.898,210.195 106.820,237.798 111.217 C 244.055 112.214,250.881 113.377,252.967 113.801 L 256.759 114.574 259.444 121.690 C 260.921 125.605,262.410 129.468,262.753 130.275 C 263.726 132.566,268.946 146.386,271.902 154.495 C 273.373 158.532,274.862 162.495,275.212 163.303 C 275.561 164.110,277.389 168.899,279.273 173.945 C 281.157 178.991,283.826 186.011,285.203 189.546 C 286.580 193.081,287.706 196.268,287.706 196.627 C 287.706 197.187,265.496 225.031,264.232 226.055 C 263.983 226.257,256.744 235.092,248.145 245.688 C 230.798 267.066,232.182 265.983,224.362 264.286 C 222.669 263.919,218.972 263.246,216.147 262.791 C 213.321 262.336,209.193 261.651,206.972 261.269 C 204.752 260.887,199.798 260.084,195.963 259.485 C 171.439 255.653,155.272 252.993,148.582 251.690 L 144.870 250.967 140.625 239.796 C 138.291 233.651,134.574 223.835,132.367 217.982 C 127.993 206.382,125.785 200.579,121.060 188.257 C 112.526 166.000,112.066 170.131,124.793 154.752 C 130.255 148.152,142.431 133.257,151.851 121.651 C 170.864 98.228,169.269 99.518,177.106 101.218 M299.308 131.390 C 319.450 141.757,331.947 150.994,342.485 163.303 C 358.730 182.280,355.982 197.626,332.822 217.261 C 325.573 223.407,325.428 223.401,322.979 216.881 C 322.069 214.459,321.058 211.817,320.732 211.009 C 319.970 209.122,316.753 200.643,311.542 186.789 C 306.959 174.606,300.811 158.402,296.506 147.156 C 291.817 134.908,289.174 127.774,289.174 127.363 C 289.174 126.419,291.258 127.247,299.308 131.390 M79.654 151.589 C 81.387 156.013,84.347 163.761,86.231 168.807 C 88.116 173.853,89.942 178.642,90.289 179.450 C 90.636 180.257,92.776 185.872,95.045 191.927 C 100.255 205.834,103.455 214.267,104.236 216.147 C 107.772 224.662,112.408 237.929,111.992 238.344 C 109.824 240.513,77.217 220.011,66.250 209.584 C 42.046 186.569,43.265 168.422,70.459 146.941 C 76.401 142.247,75.896 141.992,79.654 151.589 M294.621 251.009 C 294.833 311.661,274.857 331.075,231.743 312.120 C 227.963 310.458,227.938 310.502,243.071 292.481 C 243.751 291.671,246.062 288.823,248.208 286.151 C 250.354 283.479,256.414 276.047,261.674 269.637 C 266.933 263.227,276.169 251.942,282.198 244.561 C 295.391 228.406,294.541 227.964,294.621 251.009 M113.082 271.940 C 119.673 273.002,123.117 273.579,132.661 275.222 C 134.982 275.621,142.000 276.766,148.257 277.767 C 154.514 278.767,165.908 280.589,173.578 281.816 C 208.475 287.395,206.612 286.783,200.854 290.780 C 169.945 312.232,137.582 321.521,122.613 313.235 C 113.135 307.988,106.242 293.841,104.542 276.147 C 103.948 269.968,103.182 270.345,113.082 271.940 " stroke="none" fill="#5086b9" fill-rule="evenodd"></path></g></svg>